<svg xmlns="http://www.w3.org/2000/svg" width="128" height="128" viewBox="0 0 128 128">
<defs>
<pattern id="hz" width="10" height="10" patternUnits="userSpaceOnUse" patternTransform="rotate(45)">
<rect width="10" height="10" fill="#ffc21a"/><rect width="5" height="10" fill="#0a0d10"/></pattern>
<filter id="glow" x="-20%" y="-20%" width="140%" height="140%"><feGaussianBlur stdDeviation="2.2"/></filter>
<filter id="glow4" x="-20%" y="-20%" width="140%" height="140%"><feGaussianBlur stdDeviation="4"/></filter>
</defs>
<polygon points="0.00,24.00 24.00,0.00 120.00,0.00 128.00,8.00 128.00,104.00 104.00,128.00 8.00,128.00 0.00,120.00" fill="#04070a"/><polygon points="1.40,24.58 24.58,1.40 28.72,11.40 11.40,28.72" fill="#849ab0" stroke="#849ab0" stroke-width="0.6" stroke-linejoin="round"/>
<polygon points="24.58,1.40 119.42,1.40 115.28,11.40 28.72,11.40" fill="#849ab0" stroke="#849ab0" stroke-width="0.6" stroke-linejoin="round"/>
<polygon points="119.42,1.40 126.60,8.58 116.60,12.72 115.28,11.40" fill="#485869" stroke="#485869" stroke-width="0.6" stroke-linejoin="round"/>
<polygon points="126.60,8.58 126.60,103.42 116.60,99.28 116.60,12.72" fill="#161e26" stroke="#161e26" stroke-width="0.6" stroke-linejoin="round"/>
<polygon points="126.60,103.42 103.42,126.60 99.28,116.60 116.60,99.28" fill="#090d12" stroke="#090d12" stroke-width="0.6" stroke-linejoin="round"/>
<polygon points="103.42,126.60 8.58,126.60 12.72,116.60 99.28,116.60" fill="#090d12" stroke="#090d12" stroke-width="0.6" stroke-linejoin="round"/>
<polygon points="8.58,126.60 1.40,119.42 11.40,115.28 12.72,116.60" fill="#293542" stroke="#293542" stroke-width="0.6" stroke-linejoin="round"/>
<polygon points="1.40,119.42 1.40,24.58 11.40,28.72 11.40,115.28" fill="#6b7e93" stroke="#6b7e93" stroke-width="0.6" stroke-linejoin="round"/><polygon points="11.40,28.72 28.72,11.40 115.28,11.40 116.60,12.72 116.60,99.28 99.28,116.60 12.72,116.60 11.40,115.28" fill="none" stroke="#000000" stroke-opacity="0.75" stroke-width="1.2"/><circle cx="14.00" cy="30.00" r="2.60" fill="#1a222b"/><circle cx="13.48" cy="29.48" r="1.82" fill="#93a6b9"/><circle cx="114.00" cy="98.00" r="2.60" fill="#1a222b"/><circle cx="113.48" cy="97.48" r="1.82" fill="#93a6b9"/><circle cx="114.00" cy="14.00" r="2.40" fill="#1a222b"/><circle cx="113.52" cy="13.52" r="1.68" fill="#93a6b9"/><circle cx="14.00" cy="114.00" r="2.40" fill="#1a222b"/><circle cx="13.52" cy="113.52" r="1.68" fill="#93a6b9"/><rect x="6.00" y="82.00" width="8.00" height="26.00" fill="url(#hz)" stroke="#04070a" stroke-width="1"/></svg>
